# xmcd CD database file
#
# Track frame offsets:
#	150
#	23052
#	53130
#	78790
#	96142
#	120400
#	141342
#	161380
#	180385
#	206207
#	228612
#	248257
#	261700
#	272717
#
# Disc length: 4013 seconds
#
# Revision: 1
# Processed by: cddbd v1.5.1PL0 Copyright (c) Steve Scherf et al.
# Submitted via: CDex 1.51
#
DISCID=b80fab0e
DTITLE=Anita O'day with Norman Simmons Trio - Here is Anita!
DYEAR=1976
DGENRE=Jazz
TTITLE0=As Time Goes By
TTITLE1=Yeasterday - Yeaterdays
TTITLE2=Stardust
TTITLE3=I Hear Music
TTITLE4=I Cver The Waterfront
TTITLE5=Anita's Blues
TTITLE6=I Didn't Know What Time It Was
TTITLE7=The Very Thought Of You
TTITLE8=Sweet Georgia Brown
TTITLE9=Just The Way You Look Tonight
TTITLE10=Sophisticated Lady
TTITLE11=My Ship
TTITLE12=That Old Feeling
TTITLE13=You Are My Sunshine - You Are The Sunset Of My Life
EXTD=YEAR: 1976
EXTT0=
EXTT1=
EXTT2=
EXTT3=
EXTT4=
EXTT5=
EXTT6=
EXTT7=
EXTT8=
EXTT9=
EXTT10=
EXTT11=
EXTT12=
EXTT13=
PLAYORDER=
